<svg width="64" height="64" viewBox="0 0 64 64" fill="none" xmlns="http://www.w3.org/2000/svg">
  <defs>
    <linearGradient id="bg" x1="8" y1="6" x2="58" y2="58" gradientUnits="userSpaceOnUse">
      <stop stop-color="#1D4ED8"/>
      <stop offset="0.48" stop-color="#0891B2"/>
      <stop offset="1" stop-color="#7C3AED"/>
    </linearGradient>
    <linearGradient id="card" x1="21" y1="13" x2="43" y2="45" gradientUnits="userSpaceOnUse">
      <stop stop-color="#FFFFFF"/>
      <stop offset="1" stop-color="#E0F2FE"/>
    </linearGradient>
  </defs>
  <rect width="64" height="64" rx="18" fill="#020617"/>
  <rect x="5" y="5" width="54" height="54" rx="16" fill="url(#bg)"/>
  <path d="M18.5 18.5H40.5C43.3 18.5 45.5 20.7 45.5 23.5V46.5C45.5 49.3 43.3 51.5 40.5 51.5H18.5C15.7 51.5 13.5 49.3 13.5 46.5V23.5C13.5 20.7 15.7 18.5 18.5 18.5Z" fill="rgba(255,255,255,0.25)"/>
  <path d="M22.5 14.5H44.5C47.3 14.5 49.5 16.7 49.5 19.5V42.5C49.5 45.3 47.3 47.5 44.5 47.5H22.5C19.7 47.5 17.5 45.3 17.5 42.5V19.5C17.5 16.7 19.7 14.5 22.5 14.5Z" fill="url(#card)"/>
  <path d="M24.5 23H42M24.5 29H38M24.5 35H34" stroke="#2563EB" stroke-width="3.6" stroke-linecap="round"/>
  <circle cx="43" cy="43" r="8.3" fill="none" stroke="#020617" stroke-width="4.3"/>
  <path d="M49 49L56 56" stroke="#020617" stroke-width="4.3" stroke-linecap="round"/>
  <circle cx="43" cy="43" r="4.1" fill="#22D3EE" fill-opacity="0.35"/>
</svg>
